<svg xmlns="http://www.w3.org/2000/svg" viewBox="0 0 32 32" width="32" height="32">
  <defs>
    <linearGradient id="heartGradient" x1="0%" y1="0%" x2="100%" y2="100%">
      <stop offset="0%" style="stop-color:#ec4899;stop-opacity:1" />
      <stop offset="100%" style="stop-color:#8b5cf6;stop-opacity:1" />
    </linearGradient>
  </defs>
  
  <!-- 背景圆形 -->
  <circle cx="16" cy="16" r="15" fill="white" stroke="url(#heartGradient)" stroke-width="2"/>
  
  <!-- 心形图案 -->
  <path d="M16 25.5l-1.45-1.32C11.1 21.03 8 18.11 8 14.5c0-2.89 2.03-5 4.5-5 1.74 0 3.41.81 4.5 2.09C18.09 9.81 19.76 9 21.5 9c2.47 0 4.5 2.11 4.5 5 0 3.61-3.1 6.53-6.55 9.68L16 25.5z" 
        fill="url(#heartGradient)" 
        stroke="none"/>
  
  <!-- 小书本装饰 -->
  <g transform="translate(20, 18) scale(0.8)">
    <rect x="0" y="0" width="6" height="8" rx="0.5" fill="white" opacity="0.9"/>
    <line x1="1" y1="2" x2="5" y2="2" stroke="url(#heartGradient)" stroke-width="0.5"/>
    <line x1="1" y1="4" x2="5" y2="4" stroke="url(#heartGradient)" stroke-width="0.5"/>
    <line x1="1" y1="6" x2="4" y2="6" stroke="url(#heartGradient)" stroke-width="0.5"/>
  </g>
</svg>