<svg xmlns="http://www.w3.org/2000/svg" viewBox="0 0 512 512" width="512" height="512">
  <defs>
    <linearGradient id="heartGradient" x1="0%" y1="0%" x2="100%" y2="100%">
      <stop offset="0%" style="stop-color:#ec4899;stop-opacity:1" />
      <stop offset="100%" style="stop-color:#8b5cf6;stop-opacity:1" />
    </linearGradient>
    <filter id="shadow" x="-50%" y="-50%" width="200%" height="200%">
      <feDropShadow dx="0" dy="4" stdDeviation="8" flood-opacity="0.2"/>
    </filter>
  </defs>
  
  <!-- 背景圆形 -->
  <circle cx="256" cy="256" r="240" fill="white" stroke="url(#heartGradient)" stroke-width="16" filter="url(#shadow)"/>
  
  <!-- 心形图案 -->
  <path d="M256 400l-21.3-19.3C178.7 340 128 294.4 128 224c0-40.8 28.8-71 64-71c17.6 0 34.4 8.3 48 21.3C253.6 161.3 270.4 153 288 153c35.2 0 64 30.2 64 71 0 70.4-50.7 116-106.7 167.7L256 400z" 
        fill="url(#heartGradient)" 
        stroke="none"/>
  
  <!-- 小书本装饰 -->
  <g transform="translate(320, 280) scale(5)">
    <rect x="0" y="0" width="16" height="20" rx="2" fill="white" opacity="0.95"/>
    <line x1="3" y1="5" x2="13" y2="5" stroke="url(#heartGradient)" stroke-width="1.5"/>
    <line x1="3" y1="10" x2="13" y2="10" stroke="url(#heartGradient)" stroke-width="1.5"/>
    <line x1="3" y1="15" x2="11" y2="15" stroke="url(#heartGradient)" stroke-width="1.5"/>
  </g>
</svg>